<?xml version="1.0" standalone="no"?>
<!DOCTYPE svg PUBLIC "-//W3C//DTD SVG 20010904//EN"
 "http://www.w3.org/TR/2001/REC-SVG-20010904/DTD/svg10.dtd">
<svg version="1.0" xmlns="http://www.w3.org/2000/svg"
 width="138.000000pt" height="195.000000pt" viewBox="0 0 138.000000 195.000000"
 preserveAspectRatio="xMidYMid meet">
<metadata>
Created by potrace 1.13, written by Peter Selinger 2001-2015
</metadata>
<g transform="translate(0.000000,195.000000) scale(0.100000,-0.100000)"
fill="#000000" stroke="none">
<path d="M620 1939 c-207 -42 -335 -257 -272 -456 52 -165 194 -262 368 -251
132 9 238 83 298 208 27 57 31 75 31 150 -1 94 -25 163 -80 228 -80 95 -224
146 -345 121z"/>
<path d="M6 1451 c-3 -5 21 -60 54 -123 76 -147 79 -171 49 -403 -28 -226 -30
-392 -5 -498 43 -184 216 -349 421 -402 36 -9 102 -16 165 -16 189 0 316 51
443 177 70 69 103 122 133 210 35 107 36 270 5 514 -31 237 -28 270 43 408 31
61 56 118 56 126 0 40 -83 -4 -148 -78 -76 -87 -102 -175 -127 -431 -28 -278
-54 -368 -119 -399 -51 -24 -82 -21 -103 11 -15 23 -18 50 -18 168 -1 199 -23
232 -80 120 -30 -60 -30 -61 -32 -247 -2 -202 -13 -258 -51 -258 -40 0 -52 54
-52 233 0 137 -3 176 -20 230 -53 171 -108 120 -96 -87 4 -70 2 -112 -7 -136
-12 -34 -13 -35 -68 -35 -104 0 -131 64 -163 386 -9 84 -21 182 -26 217 -21
124 -90 237 -179 293 -47 30 -66 35 -75 20z"/>
<path d="M236 1293 c42 -82 46 -97 60 -223 23 -198 25 -209 34 -184 5 11 14
56 20 100 15 98 6 211 -22 276 -19 44 -77 108 -98 108 -4 0 -15 3 -23 6 -10 3
1 -27 29 -83z"/>
<path d="M1150 1369 c-43 -17 -89 -70 -107 -123 -22 -64 -24 -234 -4 -324 8
-34 15 -61 17 -60 1 2 10 70 19 153 17 154 39 240 79 303 36 59 38 62 29 61
-4 0 -19 -5 -33 -10z"/>
<path d="M385 1128 c8 -57 -10 -196 -36 -280 -18 -56 -20 -76 -12 -111 l10
-42 31 68 c72 155 87 286 42 365 -13 23 -28 42 -32 42 -5 0 -6 -19 -3 -42z"/>
<path d="M967 1147 c-19 -30 -37 -93 -37 -133 0 -49 35 -175 71 -250 l32 -69
9 42 c7 33 5 56 -11 106 -26 86 -45 217 -39 278 6 54 -2 61 -25 26z"/>
</g>
</svg>
